<?xml version="1.0" standalone="no"?><!DOCTYPE svg PUBLIC "-//W3C//DTD SVG 1.1//EN" "http://www.w3.org/Graphics/SVG/1.1/DTD/svg11.dtd"><svg t="1555924262551" class="icon" style="" viewBox="0 0 1024 1024" version="1.1" xmlns="http://www.w3.org/2000/svg" p-id="2456" xmlns:xlink="http://www.w3.org/1999/xlink" width="200" height="200"><defs><style type="text/css"></style></defs><path d="M955 512c0 244.6-198.2 443-443 443-152.9 0-287.8-77.4-367.3-195.3C96.9 689 69 603.8 69 512 69 267.4 267.2 69 512 69s443 198.4 443 443z m0 0" fill="#FC355D" p-id="2457"></path><path d="M580.9 512l93.5-93.5c19-19 19-49.9 0-68.9-19-19-49.9-19-68.9 0L512 443.1l-93.5-93.5c-19-19-49.9-19-68.9 0-19 19-19 49.9 0 68.9l93.5 93.5-93.5 93.5c-19 19-19 49.9 0 68.9 9.5 9.5 22 14.3 34.5 14.3 12.6 0 25-4.8 34.5-14.3l93.5-93.5 93.5 93.5c9.5 9.5 22 14.3 34.5 14.3 12.4 0 25-4.8 34.5-14.3 19-19 19-49.9 0-68.9L580.9 512z m0 0" fill="#FFFFFF" p-id="2458"></path></svg>