<svg xmlns="http://www.w3.org/2000/svg" viewBox="0 0 443.44 447.52"><defs><style>.cls-1{fill:#5bad6f;}.cls-2{fill:#599dcd;}.cls-3{fill:#db4b2e;}.cls-4{fill:#eeb338;}</style></defs><g id="图层_2" data-name="图层 2"><g id="图层_1-2" data-name="图层 1"><path class="cls-1" d="M272.48,447.52a16.57,16.57,0,0,1-3.46-4.19q-11.92-17.5-23.84-35a2.41,2.41,0,0,0-2.74-1.17,166.88,166.88,0,0,1-30.31,1.11c-4.33-.27-8.66-.64-13-1-1.42-.12-2.84-.34-4.25-.59a2,2,0,0,0-2.16,1q-11,15-22.13,30c-1.43,1.93-2.91,3.83-4.27,5.8s-2.74,2.72-5.49,1.55q-24.21-10.37-48.48-20.6c-2.35-1-4.7-2-7-3-2.08-.9-2.68-2-2.31-4.23q1.89-11.27,3.83-22.52c1.28-7.45,2.57-14.9,3.89-22.51-4.68-3.61-9.35-7.3-13.85-11.5,1.33-1.58,2.58-3.12,3.9-4.6,1-1.14,2.11-2.22,3.2-3.31l36.45-36.46c3-3,3.91-7.29,1.86-10.82a16.15,16.15,0,0,0-10.94-8,4.72,4.72,0,0,0-1.67.07,13.39,13.39,0,0,1-6.5-.62c-4.56-1.54-7.36-5.55-7.51-10.69a20.19,20.19,0,0,1,2-9.36c4.09-8.64,10.55-14.71,19.76-17.6a15.6,15.6,0,0,1,9.51-.21,10.41,10.41,0,0,1,7.63,8.72,36.59,36.59,0,0,1,.12,5,10,10,0,0,0,.12,1.81,16.3,16.3,0,0,0,6.95,9.95,8.93,8.93,0,0,0,11.51-1.16c3.15-3.06,6.19-6.26,9.54-9.11a61.55,61.55,0,0,1,45.49-13.95A61,61,0,0,1,259.75,273c1.24,1,2.42,2,3.8,3.16-1.14.29-2,.48-2.88.74-10.35,3-16.56,9.92-18.59,20.47-1.48,7.66,0,15,3.36,21.9,5.87,12,15.13,20.31,27.95,24.36a31.1,31.1,0,0,0,20.47-.07c8.89-3.23,14.2-9.64,16.38-18.76.07-.3.12-.6.2-.9a3.43,3.43,0,0,1,.19-.51,3.26,3.26,0,0,1,.61.42q15.94,16,31.86,31.94c1,1,1.89,2.13,2.89,3.27-.5.48-.89.86-1.3,1.24a168.09,168.09,0,0,1-15.06,12.35,2.1,2.1,0,0,0-1,2.29c.69,5,1.33,10,2,15s1.33,10,2,15l2,15.51c0,.15,0,.3.07.45.25,2.2-.42,3.35-2.51,4.16-3.52,1.36-7.05,2.7-10.58,4.05q-22.86,8.77-45.73,17.55a14.38,14.38,0,0,0-1.59.86Z"/><path class="cls-2" d="M171.8,0a8,8,0,0,1,2.54,2.54q13.08,19.13,26.2,38.2c.29.42.59.83,1,1.35a183.63,183.63,0,0,1,47.23,1.19c.33-.4.65-.78,1-1.18L278.07,4.32c.16-.2.3-.41.46-.61a3.19,3.19,0,0,1,4.2-1.12c3.2,1.33,6.39,2.72,9.58,4.07l46,19.48,1.11.5a3.23,3.23,0,0,1,2,3.85q-3.64,21.62-7.29,43.22c-.24,1.47-.46,2.93-.79,4.38a2.19,2.19,0,0,0,.91,2.48c3.36,2.74,6.65,5.59,10,8.41.27.23.52.49.9.85-.35.44-.66.89-1,1.28-1.05,1.12-2.1,2.24-3.19,3.32-12.18,12.2-24.32,24.45-36.6,36.54a9.59,9.59,0,0,0,0,13.91c2.41,2.31,5,4.28,8.28,5a6.52,6.52,0,0,0,2.11.1,14,14,0,0,1,6.65.61,10.68,10.68,0,0,1,7.34,9,16.29,16.29,0,0,1-.76,8.17c-3.62,10.25-10.59,17.18-21,20.52a15.88,15.88,0,0,1-7.72.56,11,11,0,0,1-9.48-10.15,14.29,14.29,0,0,1,0-3.52,7.67,7.67,0,0,0-.45-3.75,17,17,0,0,0-6.42-8.39,9,9,0,0,0-11.64,1.06c-3,2.94-5.9,6-9.07,8.72a61.55,61.55,0,0,1-45.66,14.38,61,61,0,0,1-34.92-15.27,6,6,0,0,1-.49-.57c1-.24,1.89-.42,2.76-.67,10.52-3.15,16.79-10.16,18.65-20.95,1.41-8.17-.36-15.88-4.25-23.09-6-11.11-14.91-18.84-27-22.67-6.84-2.17-13.77-2.47-20.61,0-8.76,3.19-14.07,9.49-16.3,18.47-.14.54-.25,1.09-.41,1.75a6.17,6.17,0,0,1-.77-.57q-15.82-15.85-31.64-31.73c-1.22-1.22-2.29-2.59-3.52-4,2.18-1.85,4.2-3.66,6.32-5.33,3.26-2.57,6.54-5.09,9.9-7.51a2.3,2.3,0,0,0,1.11-2.53c-.51-3.69-.94-7.4-1.4-11.1q-1-8.07-2-16.13l-2-16.13c-.12-.92-.23-1.83-.36-2.74a3.3,3.3,0,0,1,2.29-4c2.94-1.16,5.9-2.27,8.86-3.4L168.93.56A8.58,8.58,0,0,0,170,0Z"/><path class="cls-3" d="M443.44,283.61q-9,21.36-18.11,42.73-2.9,6.84-5.81,13.68c-.16.38-.31.76-.5,1.12a2.89,2.89,0,0,1-3,1.73c-1.72-.19-3.43-.47-5.14-.76l-19.17-3.27L374.83,336c-1.92-.33-3.83-.64-5.73-1a2,2,0,0,0-2.21.84c-2.85,3.61-5.8,7.15-8.72,10.7-.31.39-.68.73-1.11,1.18-1.16-1-2.27-1.91-3.28-2.91q-8.77-8.69-17.51-17.43c-7.2-7.19-14.46-14.33-21.57-21.62a9.43,9.43,0,0,0-13.77,0c-2.22,2.27-4.15,4.67-4.92,7.8a13.52,13.52,0,0,0-.24,2.55,43.51,43.51,0,0,1-.29,5.49c-.8,4.43-4.36,8.31-10.44,8.75a20,20,0,0,1-10.11-2c-8.37-4-14.29-10.27-17.28-19.12a16.78,16.78,0,0,1-.5-9.67,10.68,10.68,0,0,1,9.34-8.11c1.41-.14,2.85,0,4.27-.07a13.79,13.79,0,0,0,3.16-.36,16.65,16.65,0,0,0,8.81-6.58,9,9,0,0,0-1-11.54c-3-3.08-6.12-6-8.92-9.29a61.13,61.13,0,0,1-14.37-43.89A60.58,60.58,0,0,1,271,186.4c.91-1.18,1.89-2.29,2.85-3.42a2.62,2.62,0,0,1,.47-.34c.11.37.23.68.29,1a25.47,25.47,0,0,0,21.6,20.44,35.43,35.43,0,0,0,21.42-3.64c12.48-6.25,20.93-16,24.6-29.58a30.08,30.08,0,0,0-1-20c-3.52-8.35-9.9-13.28-18.69-15.21-.25-.05-.5-.12-.74-.18a2.09,2.09,0,0,1-.2-.19,4,4,0,0,1,.46-.65q16-15.94,31.94-31.86c.64-.64,1.37-1.2,2.19-1.91,2.46,2.9,4.84,5.7,7.21,8.51.65.78,1.29,1.58,1.9,2.4a1.2,1.2,0,0,0,1.32.51q9.27-1.57,18.57-3.12l17.66-3c3.93-.66,7.86-1.29,11.78-2,2.46-.43,3.58.12,4.57,2.46q11.77,27.72,23.54,55.43c.21.5.45,1,.67,1.48v1.84a6.71,6.71,0,0,1-2.19,2.43Q423.37,181,405.53,194.1c-1.15.84-2.29,1.7-3.45,2.56a186.22,186.22,0,0,1,.42,53.62l1.1.84q18.91,14,37.82,28a19.26,19.26,0,0,1,2,2Z"/><path class="cls-4" d="M75.42,111.94,86.2,99.33c1.44,1.24,2.76,2.28,4,3.44,2.29,2.19,4.53,4.44,6.77,6.68,10.85,10.85,21.76,21.64,32.52,32.58a9.51,9.51,0,0,0,13.79,0,19.41,19.41,0,0,0,4.57-6.63,9.68,9.68,0,0,0,.54-4.51,12,12,0,0,1,2.7-9.6c2.61-3,6.08-4,9.93-3.85a20.06,20.06,0,0,1,7.84,1.88c8.73,4.06,14.86,10.52,17.82,19.77a16,16,0,0,1,.22,9.67,10.9,10.9,0,0,1-10,7.76,16.45,16.45,0,0,1-3.06,0,9.87,9.87,0,0,0-6,1.31,17.8,17.8,0,0,0-6.22,5.37,9.06,9.06,0,0,0,.9,11.79c2.93,3,6,5.9,8.72,9.06A58.68,58.68,0,0,1,185,213.2a60.47,60.47,0,0,1-9.2,44.4c-1.49,2.31-3.32,4.4-5,6.6-.24.32-.47.66-.9,1.27-.33-1.32-.55-2.18-.78-3a25.21,25.21,0,0,0-21.35-18.77A36,36,0,0,0,125.1,248c-11.6,6.28-19.53,15.66-23.11,28.45a30.83,30.83,0,0,0,.32,18.88c3.11,8.84,9.36,14.28,18.4,16.58l.9.21c.29.07.59.12,1,.19a5.4,5.4,0,0,1-.51.77q-15.91,15.88-31.85,31.74c-1.52,1.5-3.24,2.8-4.93,4.26a13,13,0,0,1-1-1c-3.12-3.73-6.26-7.44-9.3-11.22a2.25,2.25,0,0,0-2.46-.94c-5.54.93-11.09,1.79-16.63,2.67l-16.48,2.63c-3.52.56-7.05,1.15-10.58,1.65-2.71.39-3.57-.16-4.63-2.64q-8.76-20.67-17.53-41.34C4.59,293.9,2.48,289,.4,284c-.78-1.86-.44-3,1.14-4.29l.49-.37L19.8,266.24,37.68,253c.37-.27.73-.56,1.2-.92a182.15,182.15,0,0,1,.29-56.51l-1.2-1L2.2,167.68C0,166-.29,165,.79,162.43L24.31,107l.23-.57a3.4,3.4,0,0,1,4.14-2.31c1.31.2,2.62.44,3.93.66l21.58,3.62,19.17,3.26C74.06,111.76,74.77,111.85,75.42,111.94Z"/></g></g></svg>