<?xml version="1.0" standalone="no"?><!DOCTYPE svg PUBLIC "-//W3C//DTD SVG 1.1//EN" "http://www.w3.org/Graphics/SVG/1.1/DTD/svg11.dtd"><svg t="1646028113299" class="icon" viewBox="0 0 1024 1024" version="1.1" xmlns="http://www.w3.org/2000/svg" p-id="1738" xmlns:xlink="http://www.w3.org/1999/xlink" width="200" height="200"><defs><style type="text/css"></style></defs><path d="M798.44693333 512.39867733c-27.59611733 0-50.03127467-22.42423467-50.03127466-50.020352 0-27.60157867 22.43515733-50.03127467 50.03127466-50.03127466 27.590656 0 50.020352 22.429696 50.020352 50.03127466 0 27.59611733-22.429696 50.020352-50.020352 50.020352z m-51.101696 336.31982934c0 18.333696-14.82205867 33.15575467-33.15575466 33.15575466H309.706752c-18.333696 0-33.15029333-14.82205867-33.15029333-33.15575466v-268.54468267h470.78877866v268.54468267z m-470.98538666-674.004992c0-18.33915733 14.82205867-33.161216 33.15029333-33.161216H637.93834667S630.13410133 208.34986667 649.63652267 232.72925867s96.24507733 17.65102933 96.24507733 17.65102933v91.85416533h-469.52174933v-167.52093866z m594.82658133 167.428096h-55.86944V214.11157333s0.58436267-3.80654933-5.76170667-15.99624533c-5.554176-10.72605867-67.86798933-83.181568-109.30858666-114.966528-4.685824-3.60994133-5.36302933-5.65794133-14.72375467-7.50933333h-398.53533867c-42.90423467 0-77.72023467 34.81053867-77.72023466 77.72023466V342.14161067h-56.459264c-42.90423467 0-77.71477333 34.81053867-77.71477334 77.71477333v249.73585067c0 42.90423467 34.81053867 77.71477333 77.71477334 77.71477333h56.459264v124.43101867c0 42.89877333 34.816 77.71477333 77.72023466 77.71477333h450.60369067c42.90423467 0 77.725696-34.816 77.725696-77.71477333V747.405312h55.86944c42.90423467 0 77.72023467-34.816 77.72023467-77.72023467V419.856384c0-42.90423467-34.816-77.71477333-77.72023467-77.71477333zM343.73632 747.405312h235.78760533v67.28362667H343.73632v-67.28362667z m0-100.43938133h336.22152533v67.289088H343.73632v-67.289088z m0 0" fill="#006569" p-id="1739"></path></svg>